<svg xmlns="http://www.w3.org/2000/svg" viewBox="0 0 123.77 186.92"><defs><style>.cls-1{fill:#808184;}.cls-2{fill:#6f7070;}.cls-3{fill:#12232e;}.cls-4{fill:#c5c9ae;}.cls-5{fill:#58595b;}.cls-6{fill:#1a323f;}.cls-10,.cls-11,.cls-15,.cls-7{fill:none;}.cls-7,.cls-8{stroke:#fff;stroke-width:0.05px;}.cls-10,.cls-11,.cls-15,.cls-7,.cls-8{stroke-miterlimit:10;}.cls-8{fill:#919395;opacity:0.31;}.cls-9{fill:#25d8b5;}.cls-10{stroke:#225056;stroke-width:0.48px;}.cls-11,.cls-15{stroke:#15373a;}.cls-11{stroke-width:0.97px;}.cls-12{fill:#15373a;}.cls-13{fill:#3e775d;}.cls-14{fill:#478489;}.cls-15{stroke-width:1.45px;}.cls-16{fill:#225056;}.cls-17{fill:#79af8f;}</style></defs><title>Recurso 2</title><g id="Capa_2" data-name="Capa 2"><g id="Layer_1" data-name="Layer 1"><g id="_Grupo_" data-name="&lt;Grupo&gt;"><g id="_Grupo_2" data-name="&lt;Grupo&gt;"><polygon id="_Trazado_" data-name="&lt;Trazado&gt;" class="cls-1" points="46.56 59.43 45.57 60 122.8 104.58 123.77 104.03 46.56 59.43"/><path id="_Trazado_2" data-name="&lt;Trazado&gt;" class="cls-2" d="M122.8,104.58l1-.55v49.1c0,4.46-1,4.95-1,4.95Z"/><polygon id="_Trazado_3" data-name="&lt;Trazado&gt;" class="cls-3" points="45.57 113.5 45.57 60 122.8 104.58 122.8 158.09 45.57 113.5"/><path id="_Trazado_4" data-name="&lt;Trazado&gt;" class="cls-1" d="M122.8,158.09,76.46,184.83l-76-43.89c-.54-.31-.66-1,.13-1.46l45-26Z"/><polygon id="_Trazado_5" data-name="&lt;Trazado&gt;" class="cls-3" points="119.17 158.03 88.61 175.67 15.11 133.24 45.68 115.59 119.17 158.03"/><polygon id="_Trazado_6" data-name="&lt;Trazado&gt;" class="cls-4" points="50 110.85 50 67.85 117.47 106.72 117.47 149.72 50 110.85"/><path id="_Trazado_7" data-name="&lt;Trazado&gt;" class="cls-2" d="M122.8,158.09,77.87,184a3,3,0,0,1-3.14-.19L.44,140.94a1.11,1.11,0,0,1-.43-.62v1s-.12,2.06.79,2.61l32.57,18.69s40.37,23.19,41.48,23.8a3.14,3.14,0,0,0,3.27,0c7.87-4.52,41.24-23.69,41.93-24.12,1.62-1,2.75-1.88,2.75-3.64Z"/><polygon id="_Trazado_8" data-name="&lt;Trazado&gt;" class="cls-2" points="26.35 154.27 37.6 147.76 60.31 160.87 49.07 167.37 26.35 154.27"/><path id="_Trazado_9" data-name="&lt;Trazado&gt;" class="cls-5" d="M32.36,159.37l7.34,4.24c0,.62-2.58-.88-4.36-1.88C34,161,32.32,160,32.36,159.37Z"/><path id="_Trazado_10" data-name="&lt;Trazado&gt;" class="cls-5" d="M122.8,158.09v.61c0,1.76-1.13,2.64-2.75,3.64-.7.43-42.05,24.19-42.05,24.19a3.32,3.32,0,0,1-1.53.4v-2.53a2.62,2.62,0,0,0,1.48-.41Z"/><polygon id="_Trazado_11" data-name="&lt;Trazado&gt;" class="cls-6" points="84.84 163.03 87.65 161.41 98.8 167.85 95.97 169.48 84.84 163.03"/><polygon id="_Trazado_12" data-name="&lt;Trazado&gt;" class="cls-6" points="59.28 157.57 63.16 155.33 67.1 157.55 63.2 159.81 59.28 157.57"/><polygon id="_Trazado_13" data-name="&lt;Trazado&gt;" class="cls-6" points="64.4 160.43 68.28 158.19 72.21 160.41 68.31 162.67 64.4 160.43"/><polygon id="_Trazado_14" data-name="&lt;Trazado&gt;" class="cls-6" points="74.62 166.15 76.84 164.87 80.78 167.1 78.53 168.39 74.62 166.15"/><polygon id="_Trazado_15" data-name="&lt;Trazado&gt;" class="cls-6" points="84.84 171.87 87.07 170.59 91 172.82 88.75 174.11 84.84 171.87"/><polygon id="_Trazado_16" data-name="&lt;Trazado&gt;" class="cls-6" points="83.64 166.77 85.86 165.49 89.8 167.72 87.55 169.01 83.64 166.77"/><polygon id="_Trazado_17" data-name="&lt;Trazado&gt;" class="cls-3" points="79.73 169.01 83.61 166.77 87.55 169 83.64 171.25 79.73 169.01"/><polygon id="_Trazado_18" data-name="&lt;Trazado&gt;" class="cls-6" points="36.15 144.06 40.03 141.82 61.97 154.48 58.06 156.74 36.15 144.06"/><g id="_Grupo_3" data-name="&lt;Grupo&gt;"><polyline id="_Trazado_19" data-name="&lt;Trazado&gt;" class="cls-7" points="99.59 162.98 101.27 163.94 99.17 165.16 93.63 161.95"/><polyline id="_Trazado_20" data-name="&lt;Trazado&gt;" class="cls-7" points="94.98 161.95 93.63 161.95 93.78 162.98"/></g><polygon id="_Trazado_21" data-name="&lt;Trazado&gt;" class="cls-6" points="79.73 169.01 81.96 167.73 85.89 169.96 83.64 171.25 79.73 169.01"/><polygon id="_Trazado_22" data-name="&lt;Trazado&gt;" class="cls-8" points="45.57 113.5 122.8 104.58 45.57 60 45.57 113.5"/></g><ellipse id="_Trazado_23" data-name="&lt;Trazado&gt;" class="cls-9" cx="67" cy="144.12" rx="7.51" ry="4.97"/><g id="_Grupo_4" data-name="&lt;Grupo&gt;"><path id="_Trazado_24" data-name="&lt;Trazado&gt;" class="cls-10" d="M68.93,149.17s-3.17-20,1.23-24.13c4.93-4.58,5.5-5.35,5.09-15-.38-8.86-4.4-20.75-8-22.26S54.33,77.42,54.12,64.22,58,33.69,57.7,25.73"/><path id="_Trazado_25" data-name="&lt;Trazado&gt;" class="cls-11" d="M66.71,149.39c0-4.17-3.18-8-2.6-13.56s6.09.84,9.3-3.79S71.16,94.34,66,85.21,44.12,38.91,57.7,25.73"/><path id="_Trazado_26" data-name="&lt;Trazado&gt;" class="cls-12" d="M57.32,57.66s-1.87-1.57,0-4S68.23,48.91,70,51.37s.59,2.61.59,2.61,4.52-1.83,4.42,5.35c0,0,3.44-1.18,3.44,2s-.79,3.73-1.08,3.83-2.65-2.36-4.23-2.06-3.73,1.28-3.64,1.67,4.82-.29,5.41.4.39,4.91-.59,6.09c-3.24.59-5.11,1.57-6.29.88s-1-3.83-.1-5.21c-2.65.88-3.64,4.62-2.65,6,0,0-3.24,3-6-.49,0,0-4.07,2.06-3.76-.1-2.89-.31-4.23-6.42-3.26-8C50.93,64,47.94,57.26,57.32,57.66Z"/><path id="_Trazado_27" data-name="&lt;Trazado&gt;" class="cls-13" d="M47.31,55.81a14,14,0,0,0-8.05-2.2C35,54,31,56.3,31.2,59.11s.85,5.61,2.2,6.1,3.29-5,8.3-4-2.68,1.34-3.29,3-.38,4,.85,4.64,3.54-7.56,9.16-7.08-1,2.1-3.66,2.93S41.09,69.11,41.94,70a10.54,10.54,0,0,0,6,1.83c2-.12-2.32-2.93-1.22-4.27s5.25-4.76,8.3-3.78-6.22,1.59-5.61,4.15,1.34,4.65,2.81,3.91,2-5.74,5.25-3.91-2,1.34-2.07,3a4,4,0,0,0,2.44,4c1.71.73,4.27,2.2,4.39,3,2.2-2.32,7.93-5.86,10.74-6.1s-1.22-4.76-5-5.49,1.22-2.07,3.42-1.34,4.42,3,3.42,4.27c3,.12,5.25-3.54,3.66-4.64s-9.88-2.56-12.69-1.83-2-2.2.37-1.83a41,41,0,0,1,5,1.1c1.34.37,5.61-.73,2.56-2.44S65.36,54.84,57.92,55A57.92,57.92,0,0,0,47.31,55.81Z"/><path id="_Trazado_28" data-name="&lt;Trazado&gt;" class="cls-14" d="M37,62.95c2-1.3,4-2.48,5.1-2.1,2.44.84,5.44,3,4.29,5.12-.6.13-1.27-1.62-2.19-1.58-4,.21,2,1,2.76,2.55.87,1.77.4,4.1-.19,4.44s-5.48-5.77-6.83-4.54c-.65.59,2.06,2.3,4,3.29,1.46.76,3.58.58,3.27,3.21s-1.55,4.12-1.56,3.87c-.07-1.37-4.52-9.22-6.5-7.91-1.51,1,3.76,2.58,4.78,4.28S46,77.84,45.5,79c-.94,2.07-5.2-4.79-6.22-6.15S36.52,70.18,35.85,71c-.37.47-.21,1.12.89,1.88s4,1.48,4.56,4.11.07,5-2.17,5.88c-2.74,1.11-2.38.25-1.7-1.1s0-8.51-3.91-7.81c-1.44.25,0,1.87.93,3.14s2.29,5.11.59,6.21-2.9.72-2.8,0,.93-4.42-.59-4-.76,4.59-1.7,5.18c-1.7-.08-8.66-.64-8.07-3.17a7.87,7.87,0,0,1,5-5.07c-.85-.76-4-.34-4.5.93a5.4,5.4,0,0,0-.55,3c-1.83-.42-2.67-2.46-2.67-4.42s7-4.43,9.34-3.91c3.44.75,3.39-1.69,1-1.52s-3.74,1.62-4.89,2-2.73,1.09-3.38,1.34,3-7,9.2-6.22c2,.25,1.71-1,.22-1.07-3.29-.17-9.22,1.85-9.42,4.9-1-1.53-.34-5.43,1.78-7S30,62,32.25,63.12s.42-1-.3-1.47c-.89-.52-5.24-1.37-8.69,2.52-.51-1.78,2.69-5.54,4.65-6.12,3-.89,7-.51,7.4.69C36.1,61.27,36.89,61.85,37,62.95Z"/><path id="_Trazado_29" data-name="&lt;Trazado&gt;" class="cls-13" d="M92.64,55.91c-1.16-2.74-2.17-5.4-1.47-5.85,1.53-1,4.83-1,7.13,1.88,0,.58-2.24-.67-2.38.07-.6,3.17,1.69-.46,3.68.48,2.33,1.1,5.06,3.75,5.35,4.53s-8.17-1.65-7,.57c.58,1.07,3.22.74,4.83.32,1.24-.33,1.46-2.08,4.59.75s4.68,5.22,4.37,5c-1.68-1.3-12.15-5.77-11-3,.89,2.1,3.93-.23,6.2.69s5.65,2.64,6.94,4.18c2.32,2.75-6.92-.88-8.79-1.47s-3.82-.59-2.93.74a2.68,2.68,0,0,0,2.48,1.2c1.16-.06,2.64-1.47,6,.69s6,4.86,6.67,7.41c.77,3.12-.2,2-1.7.17S105.3,65.78,105.3,69.4c0,1.32,2.27,1.85,4,2.41S116,75.16,117,77.5s.25,2.85-.59,2.07-5.17-5.06-5-3.51,5.41,5.1,5.93,6.38c-.46,1.17-2.62,5.77-5.56,2.84s-5-7.19-5.09-8.72c-1.11-.13-1.26,2.62.18,4.25a19.57,19.57,0,0,0,3.49,3.34c-.9.94-3.56-.46-5.93-2.39s-3.9-9.55-2.77-10.78c1.64-1.8-1.34-4.18-1.63-2.25s1.17,4.36,1.38,5.58.74,3.1.91,3.83-7.89-9.18-5.6-13c.72-1.19-.84-2.25-1.25-1.22-.91,2.26.29,8.65,3.95,11.81-2.07-.76-6.66-5.11-8.07-8.19s-1.34-7.4.49-8S90.65,58.25,90,58.37c-.82.15-2.78,2.52,1.22,8.92-2.27-1.39-6.15-7.47-6.45-9.49-.45-3.07.87-5.7,2.4-4.8C90.41,54.92,91.28,54.91,92.64,55.91Z"/><path id="_Trazado_30" data-name="&lt;Trazado&gt;" class="cls-10" d="M69,144.66s-2.44-42.4,3.23-47.27,7.86-5.91,6.94-16.52"/><path id="_Trazado_31" data-name="&lt;Trazado&gt;" class="cls-15" d="M68.3,149c2.6-7.77-3-23-2.18-29.25s8.48.93,12.94-4.19S75.93,73.89,68.79,63.79,41.38,27.5,64,13"/><path id="_Trazado_32" data-name="&lt;Trazado&gt;" class="cls-12" d="M55.84,79.38s-3.57-3,0-7.71,20.86-9,24.24-4.32,1.13,5,1.13,5,8.64-3.5,8.46,10.22c0,0,6.58-2.26,6.58,3.76s-1.5,7.14-2.07,7.33-5.07-4.51-8.08-3.95-7.14,2.44-7,3.19,9.21-.55,10.34.76.75,9.39-1.13,11.65c-6.2,1.13-9.77,3-12,1.69s-1.88-7.33-.19-10c-5.07,1.69-7,8.83-5.07,11.46,0,0-6.2,5.83-11.46-.94,0,0-7.79,3.95-7.18-.19-5.52-.59-8.1-12.28-6.22-15.32C43.62,91.59,37.91,78.62,55.84,79.38Z"/><path id="_Trazado_33" data-name="&lt;Trazado&gt;" class="cls-16" d="M59.61,49.54s-6.49-4.39-13.81-3.77S31.57,50.37,32,55.19s1.46,9.63,3.77,10.46S41.41,57.07,50,58.75,45.38,61,44.34,64s-.65,6.91,1.46,8S51.87,59,61.5,59.79s-1.67,3.61-6.28,5-6.28,7.53-4.81,9S57.31,77.16,60.66,77s-4-5-2.09-7.32,9-8.16,14.23-6.49-10.67,2.72-9.63,7.12,2.3,8,4.81,6.71,3.35-9.85,9-6.71-3.35,2.3-3.56,5.23a6.78,6.78,0,0,0,4.19,6.91c2.93,1.26,7.32,3.77,7.53,5.23,3.77-4,13.6-10,18.42-10.46S101.47,69,95,67.75s2.09-3.56,5.86-2.3,7.58,5.11,5.86,7.32c5.23.21,9-6.07,6.28-8s-17-4.39-21.77-3.14-3.35-3.77.63-3.14a70.33,70.33,0,0,1,8.58,1.88c2.3.63,9.63-1.26,4.39-4.19s-14.23-8.37-27-8.16S59.61,49.54,59.61,49.54Z"/><path id="_Trazado_34" data-name="&lt;Trazado&gt;" class="cls-14" d="M54.93,88.77c3.18-2.1,6.45-4,8.26-3.4,4,1.35,8.8,4.9,7,8.28-1,.22-2.05-2.63-3.55-2.55-6.49.33,3.27,1.69,4.47,4.13,1.41,2.86.65,6.64-.31,7.19s-8.87-9.35-11.06-7.35c-1.05,1,3.34,3.72,6.41,5.32,2.37,1.23,5.79.93,5.29,5.19s-2.5,6.67-2.52,6.26c-.11-2.22-7.31-14.92-10.53-12.8-2.44,1.61,6.08,4.17,7.73,6.92s3.47,6.92,2.61,8.8c-1.53,3.36-8.42-7.75-10.07-10s-4.47-4.32-5.55-2.94c-.6.76-.35,1.81,1.44,3.05s6.41,2.39,7.38,6.65.11,8-3.52,9.51c-4.43,1.8-3.85.41-2.75-1.79s.08-13.78-6.33-12.65c-2.34.41,0,3,1.51,5.09s3.71,8.27,1,10-4.69,1.16-4.54,0,1.51-7.16-1-6.47-1.24,7.43-2.75,8.39c-2.75-.14-14-1-13.06-5.13s5.5-7.66,8.11-8.21c-1.38-1.24-6.46-.55-7.29,1.51a8.74,8.74,0,0,0-.88,4.81c-3-.69-4.32-4-4.32-7.15s11.31-7.17,15.12-6.34c5.57,1.22,5.48-2.74,1.63-2.46s-6.05,2.62-7.91,3.22-4.42,1.76-5.47,2.17,4.9-11.37,14.9-10.07c3.16.41,2.78-1.61.35-1.73-5.32-.28-14.92,3-15.25,7.93-1.65-2.48-.56-8.78,2.88-11.26s11.19-3.74,14.9-2,.68-1.7-.49-2.38c-1.44-.84-8.48-2.22-14.07,4.09-.83-2.89,4.36-9,7.52-9.91C45,79.41,51.57,80,52.18,82,53.47,86.05,54.74,87,54.93,88.77Z"/><path id="_Trazado_35" data-name="&lt;Trazado&gt;" class="cls-17" d="M49.87,34.54c-2.77-1.7-5.62-3.25-7.2-2.75-3.45,1.09-7.67,4-6.06,6.69.84.17,1.79-2.12,3.09-2.06,5.65.27-2.84,1.36-3.89,3.33-1.23,2.31-.57,5.36.27,5.8s7.73-7.55,9.64-5.94c.92.77-2.91,3-5.58,4.3-2.06,1-5,.75-4.61,4.19s2.18,5.39,2.2,5.06c.1-1.79,6.37-12.05,9.17-10.34,2.13,1.3-5.3,3.37-6.74,5.59s-3,5.59-2.28,7.11c1.33,2.71,7.33-6.26,8.77-8s3.89-3.49,4.83-2.37c.52.62.3,1.46-1.26,2.46s-5.59,1.93-6.43,5.37-.1,6.49,3.06,7.68c3.86,1.45,3.35.33,2.4-1.44S49.2,48.06,54.78,49c2,.33,0,2.44-1.32,4.11s-3.23,6.68-.84,8.11,4.09.94,4,0-1.32-5.78.84-5.23,1.08,6,2.4,6.77c2.4-.11,12.22-.84,11.38-4.14S66.4,52.41,64.12,52c1.2-1,5.63-.44,6.35,1.22a6.61,6.61,0,0,1,.77,3.89C73.83,56.52,75,53.86,75,51.3s-9.85-5.79-13.18-5.12c-4.85,1-4.78-2.21-1.42-2s5.27,2.11,6.89,2.6,3.85,1.42,4.77,1.76-4.27-9.18-13-8.13c-2.76.33-2.42-1.3-.31-1.4,4.64-.22,13,2.42,13.29,6.4,1.44-2,.49-7.09-2.51-9.09s-9.75-3-13-1.58S56,33.39,57,32.84c1.25-.67,7.39-1.79,12.26,3.3.72-2.33-3.8-7.24-6.55-8-4.19-1.16-9.91-.67-10.44.9C51.14,32.34,50,33.1,49.87,34.54Z"/><path id="_Trazado_36" data-name="&lt;Trazado&gt;" class="cls-14" d="M64,13c-4.77-3.14-9.66-6-12.36-5.1-5.92,2-13.17,7.33-10.41,12.4,1.45.32,3.07-3.93,5.31-3.82,9.71.5-4.89,2.53-6.69,6.18-2.11,4.28-1,9.93.46,10.76s13.28-14,16.56-11c1.57,1.44-5,5.56-9.59,8-3.54,1.85-8.67,1.4-7.92,7.78s3.75,10,3.78,9.37c.17-3.32,10.95-22.34,15.76-19.16,3.65,2.41-9.1,6.24-11.57,10.36s-5.19,10.36-3.91,13.17C45.69,57,56,40.34,58.48,37s6.69-6.46,8.3-4.4c.89,1.14.52,2.71-2.16,4.57s-9.6,3.58-11,10-.17,12,5.26,14.24c6.63,2.69,5.76.62,4.12-2.68s-.11-20.63,9.47-18.94c3.5.62,0,4.53-2.26,7.62s-5.56,12.38-1.44,15,7,1.74,6.79,0S73.25,51.74,77,52.77s1.85,11.11,4.12,12.55c4.12-.21,21-1.56,19.55-7.68S92.39,46.18,88.48,45.36c2.06-1.85,9.67-.82,10.91,2.26s1.69,5.26,1.32,7.2c4.44-1,6.47-6,6.47-10.7S90.25,33.39,84.54,34.64c-8.33,1.82-8.2-4.1-2.44-3.69s9.06,3.92,11.84,4.81,6.62,2.64,8.19,3.25S94.81,22,79.84,24c-4.73.62-4.16-2.41-.52-2.6,8-.42,22.33,4.48,22.82,11.87,2.47-3.7.83-13.15-4.31-16.85s-16.75-5.6-22.31-2.92-1-2.54.73-3.56C78.39,8.65,88.94,6.58,97.3,16,98.53,11.69,90.77,2.6,86,1.18,78.84-1,69-.06,68.11,2.84,66.18,9,64.27,10.39,64,13Z"/></g></g></g></g></svg>