<svg xmlns="http://www.w3.org/2000/svg" viewBox="0 0 130.25 18.08"><defs><style>.cls-1{fill:#fff;}</style></defs><title>Recurso 1</title><g id="Capa_2" data-name="Capa 2"><g id="Layer_1" data-name="Layer 1"><g id="_Grupo_" data-name="&lt;Grupo&gt;"><path id="_Trazado_compuesto_" data-name="&lt;Trazado compuesto&gt;" class="cls-1" d="M9.26,2.66H2.51v5H9.15V10H2.51v5.27H9.72v2.4H0V.29H10.12Z"/><path id="_Trazado_compuesto_2" data-name="&lt;Trazado compuesto&gt;" class="cls-1" d="M12.27,17.72V.29h2.51v15h6.93v2.4Z"/><path id="_Trazado_compuesto_3" data-name="&lt;Trazado compuesto&gt;" class="cls-1" d="M32.15,18.08c-5.63,0-9.12-3.37-9.12-8.86C23,3.44,27.34,0,32.62,0a9.47,9.47,0,0,1,5.13,1.11l-.07,4a7.48,7.48,0,0,0-4.48-1.44C29.74,3.66,28,6.21,28,9c0,3,1.87,5.27,5.06,5.27A7.54,7.54,0,0,0,37.28,13l1.29,3.16A11.05,11.05,0,0,1,32.15,18.08Z"/><path id="_Trazado_compuesto_4" data-name="&lt;Trazado compuesto&gt;" class="cls-1" d="M54.18,16c-1.43,1.4-3.48,2-6.38,2-2.58,0-4.77-.54-6.14-1.76a6.37,6.37,0,0,1-1.94-5V.29h4.84v10.8a3.2,3.2,0,0,0,.76,2.3,3.64,3.64,0,0,0,2.55.86,3.89,3.89,0,0,0,2.76-.86,2.88,2.88,0,0,0,.65-2.15V.29h4.84V10.91A6.89,6.89,0,0,1,54.18,16Z"/><path id="_Trazado_compuesto_5" data-name="&lt;Trazado compuesto&gt;" class="cls-1" d="M58.38,17.72V.29h4.84V14.1h6.42v3.62Z"/><path id="_Trazado_compuesto_6" data-name="&lt;Trazado compuesto&gt;" class="cls-1" d="M84,4.2H79.19V17.72H74.35V4.2H69.25V.29H84.93Z"/><path id="_Trazado_compuesto_7" data-name="&lt;Trazado compuesto&gt;" class="cls-1" d="M87,17.72V.29h4.84V17.72Z"/><path id="_Trazado_compuesto_8" data-name="&lt;Trazado compuesto&gt;" class="cls-1" d="M104.45,17.83h-3.62L93.29.29h5.17L101.87,9c.39,1.08.75,2.22,1,3h0A30.9,30.9,0,0,1,104.09,9L107.75.29h4.84Z"/><path id="_Trazado_compuesto_9" data-name="&lt;Trazado compuesto&gt;" class="cls-1" d="M127.31,16A9.71,9.71,0,0,1,121,18.08a9.5,9.5,0,0,1-6.17-2,8.76,8.76,0,0,1-3-7,8.85,8.85,0,0,1,3-6.93A9.64,9.64,0,0,1,121.06,0a9.39,9.39,0,0,1,6.46,2.26A8.89,8.89,0,0,1,130.25,9,8.9,8.9,0,0,1,127.31,16ZM121,3.69c-2.69,0-4.27,2-4.27,5.35s1.61,5.31,4.27,5.31,4.23-2,4.23-5.31S123.65,3.69,121,3.69Z"/></g></g></g></svg>