<?xml version="1.0" encoding="utf-8"?>
<!-- Generator: Adobe Illustrator 20.1.0, SVG Export Plug-In . SVG Version: 6.00 Build 0)  -->
<svg version="1.1" id="Layer_1" xmlns="http://www.w3.org/2000/svg" xmlns:xlink="http://www.w3.org/1999/xlink" x="0px" y="0px"
	 viewBox="0 0 195.4 23.8" style="enable-background:new 0 0 195.4 23.8;" xml:space="preserve">
<g>
	<g>
		<defs>
			<path id="SVGID_1_" d="M146.3,7.7l2.2,1.8c1-1.3,1.8-1.9,2.9-1.9c1.1,0,1.9,0.7,1.9,1.9c0,1.2-0.7,2-2.4,3.5l-3,2.5h4.1l0.8-0.6
				c2.5-2,3.7-3.2,3.7-5.6c0-2.7-1.8-4.5-4.8-4.5C149,4.7,147.7,5.7,146.3,7.7"/>
		</defs>
		<clipPath id="SVGID_2_">
			<use xlink:href="#SVGID_1_"  style="overflow:visible;"/>
		</clipPath>
		<rect x="141.3" y="-0.3" style="clip-path:url(#SVGID_2_);fill:#010101;" width="20.1" height="20.7"/>
	</g>
</g>
<polygon style="fill:#010101;" points="146.4,16.6 146.1,16.8 146.1,19.4 156.5,19.4 156.5,16.6 "/>
<rect x="136.1" y="4.7" style="fill:#010101;" width="3.2" height="14.8"/>
<rect x="127.7" y="16.5" style="fill:#010101;" width="5.9" height="3"/>
<rect x="123.3" y="4.7" style="fill:#010101;" width="3.1" height="14.8"/>
<g>
	<g>
		<defs>
			<path id="SVGID_3_" d="M113.5,7.5c2.2,0.3,3.7,2.3,3.7,4.6v0c0,2.3-1.5,4.2-3.7,4.6v3c4.1-0.3,7-3.6,7-7.6v0c0-4-2.9-7.3-7-7.6
				V7.5z"/>
		</defs>
		<clipPath id="SVGID_4_">
			<use xlink:href="#SVGID_3_"  style="overflow:visible;"/>
		</clipPath>
		<rect x="108.5" y="-0.5" style="clip-path:url(#SVGID_4_);fill:#010101;" width="17" height="25.2"/>
	</g>
</g>
<g>
	<g>
		<defs>
			<path id="SVGID_5_" d="M105.2,12.1L105.2,12.1c0,4,2.9,7.3,7,7.6v-3c-2.2-0.3-3.7-2.3-3.7-4.6v0c0-2.3,1.5-4.2,3.7-4.6v-3
				C108.1,4.8,105.2,8.1,105.2,12.1"/>
		</defs>
		<clipPath id="SVGID_6_">
			<use xlink:href="#SVGID_5_"  style="overflow:visible;"/>
		</clipPath>
		<rect x="100.2" y="-0.5" style="clip-path:url(#SVGID_6_);fill:#010101;" width="17" height="25.2"/>
	</g>
</g>
<g>
	<g>
		<defs>
			<path id="SVGID_7_" d="M167.4,7.4c2.2,0.3,3.7,2.3,3.7,4.6v0c0,2.3-1.5,4.2-3.7,4.6v3c4.1-0.3,7-3.6,7-7.6v0c0-4-2.9-7.3-7-7.6
				V7.4z"/>
		</defs>
		<clipPath id="SVGID_8_">
			<use xlink:href="#SVGID_7_"  style="overflow:visible;"/>
		</clipPath>
		<rect x="162.4" y="-0.6" style="clip-path:url(#SVGID_8_);fill:#010101;" width="17" height="25.2"/>
	</g>
</g>
<g>
	<g>
		<defs>
			<path id="SVGID_9_" d="M159.2,12.1L159.2,12.1c0,4,2.9,7.3,7,7.6v-3c-2.2-0.3-3.7-2.4-3.7-4.7c0-2.3,1.5-4.2,3.7-4.5v-3
				C162.1,4.8,159.2,8.1,159.2,12.1"/>
		</defs>
		<clipPath id="SVGID_10_">
			<use xlink:href="#SVGID_9_"  style="overflow:visible;"/>
		</clipPath>
		<rect x="154.2" y="-0.5" style="clip-path:url(#SVGID_10_);fill:#010101;" width="17" height="25.2"/>
	</g>
</g>
<g>
	<g>
		<defs>
			<path id="SVGID_11_" d="M96.6,4.7v2.9h1.1c1.6,0,2.6,0.8,2.6,2.2v0c0,1.3-0.9,2.2-2.5,2.2h-1.2V15h1.1c3.2,0,5.8-1.8,5.8-5.2v0
				c0-3-2.1-5.1-5.5-5.1H96.6z"/>
		</defs>
		<clipPath id="SVGID_12_">
			<use xlink:href="#SVGID_11_"  style="overflow:visible;"/>
		</clipPath>
		<rect x="91.6" y="-0.3" style="clip-path:url(#SVGID_12_);fill:#010101;" width="16.9" height="20.3"/>
	</g>
</g>
<rect x="92.1" y="4.7" style="fill:#010101;" width="3.2" height="14.8"/>
<g>
	<g>
		<defs>
			<path id="SVGID_13_" d="M82.3,7.5c2.2,0.3,3.7,2.3,3.7,4.6v0c0,2.3-1.5,4.2-3.7,4.6v3c4.1-0.3,7-3.6,7-7.6v0c0-4-2.9-7.3-7-7.6
				V7.5z"/>
		</defs>
		<clipPath id="SVGID_14_">
			<use xlink:href="#SVGID_13_"  style="overflow:visible;"/>
		</clipPath>
		<rect x="77.3" y="-0.5" style="clip-path:url(#SVGID_14_);fill:#010101;" width="17" height="25.2"/>
	</g>
</g>
<polygon style="fill:#010101;" points="80.4,3.3 82.8,3.3 85.6,1.2 82.9,0 "/>
<g>
	<g>
		<defs>
			<path id="SVGID_15_" d="M74.1,12.1L74.1,12.1c0,4,2.9,7.3,7,7.6v-3c-2.2-0.3-3.7-2.3-3.7-4.6v0c0-2.3,1.5-4.2,3.7-4.6v-3
				C77,4.8,74.1,8.1,74.1,12.1"/>
		</defs>
		<clipPath id="SVGID_16_">
			<use xlink:href="#SVGID_15_"  style="overflow:visible;"/>
		</clipPath>
		<rect x="69.1" y="-0.5" style="clip-path:url(#SVGID_16_);fill:#010101;" width="17" height="25.2"/>
	</g>
</g>
<g>
	<g>
		<defs>
			<path id="SVGID_17_" d="M64.3,4.7v2.9h1.8c1.5,0,2.5,0.7,2.5,2.1v0c0,1.2-0.9,2.1-2.4,2.1h-1.9v2.9h1.2l3.1,4.7h3.7l-3.5-5.3
				c1.8-0.7,3.1-2.2,3.1-4.6v0c0-1.4-0.4-2.6-1.2-3.4c-0.9-1-2.4-1.5-4.2-1.5C66.4,4.7,64.3,4.7,64.3,4.7z"/>
		</defs>
		<clipPath id="SVGID_18_">
			<use xlink:href="#SVGID_17_"  style="overflow:visible;"/>
		</clipPath>
		<rect x="59.3" y="-0.3" style="clip-path:url(#SVGID_18_);fill:#010101;" width="18" height="24.8"/>
	</g>
</g>
<rect x="59.9" y="4.7" style="fill:#010101;" width="3.2" height="14.8"/>
<rect x="45.5" y="4.7" style="fill:#010101;" width="11.9" height="3"/>
<polygon style="fill:#010101;" points="30.6,4.7 40.4,19.5 44.2,19.5 34.4,4.7 "/>
<polygon style="fill:#010101;" points="40.4,4.7 38.2,8.2 39.9,10.8 44,4.7 "/>
<polygon style="fill:#010101;" points="30.5,19.5 34.1,19.5 36.5,15.7 34.7,13.1 "/>
<rect x="22.2" y="16.6" style="fill:#010101;" width="6.5" height="2.9"/>
<rect x="22.2" y="4.7" style="fill:#010101;" width="6.4" height="2.9"/>
<rect x="22.2" y="10.6" style="fill:#010101;" width="5.5" height="2.9"/>
<rect x="17.8" y="4.7" style="fill:#010101;" width="3.1" height="14.8"/>
<rect x="11.2" y="4.7" style="fill:#010101;" width="3.1" height="14.8"/>
<polygon style="fill:#010101;" points="4.3,11.8 7.1,16.1 7.2,16.1 10,11.7 10,6.3 7.2,10.9 4.3,6.2 "/>
<rect y="4.7" style="fill:#010101;" width="3.1" height="14.8"/>
<rect x="49.9" y="9" style="fill:#010101;" width="3.2" height="10.5"/>
<polygon style="fill:#010101;" points="179.9,4.7 175.8,6 176.4,8.6 182,7.2 182,4.7 "/>
<polygon style="fill:#010101;" points="178.9,9.3 178.9,19.4 182,19.4 182,8.5 "/>
<polygon style="fill:#010101;" points="185.2,4.8 185.2,7.6 190.9,7.6 190.9,7.6 195.2,7.6 195.4,7.2 195.4,4.8 "/>
<polygon style="fill:#010101;" points="191.2,8.8 185.6,19.4 189.1,19.4 194.6,8.8 "/>
</svg>
