<?xml version="1.0" encoding="utf-8"?>
<!-- Generator: Adobe Illustrator 17.1.0, SVG Export Plug-In . SVG Version: 6.00 Build 0)  -->
<!DOCTYPE svg PUBLIC "-//W3C//DTD SVG 1.1//EN" "http://www.w3.org/Graphics/SVG/1.1/DTD/svg11.dtd">
<svg version="1.1" id="Capa_1" xmlns="http://www.w3.org/2000/svg" xmlns:xlink="http://www.w3.org/1999/xlink" x="0px" y="0px"
	 viewBox="0 0 158.091 100.151" enable-background="new 0 0 158.091 100.151" xml:space="preserve">
<g>
	<g>
		<path fill="#312822" d="M11.236,58.924H3.049v6.1h8.056v2.874H3.049v6.403h8.752v2.913H0V56.049h12.28L11.236,58.924z"/>
		<path fill="#312822" d="M14.894,77.213V56.049h3.05v18.251h8.403v2.913H14.894z"/>
		<path fill="#312822" d="M39.023,77.647c-6.837,0-11.061-4.09-11.061-10.753c0-7.012,5.225-11.194,11.627-11.194
			c2.526,0,4.703,0.349,6.227,1.353l-0.086,4.834c-1.744-1.265-3.615-1.744-5.443-1.744c-4.182,0-6.314,3.093-6.314,6.53
			c0,3.706,2.264,6.405,6.137,6.405c2.004,0,3.834-0.698,5.14-1.611l1.568,3.829C44.509,76.953,41.677,77.647,39.023,77.647z"/>
		<path fill="#312822" d="M65.763,75.166c-1.744,1.702-4.225,2.481-7.751,2.481c-3.135,0-5.793-0.652-7.446-2.132
			c-1.482-1.304-2.353-3.355-2.353-6.007V56.049h5.877v13.11c0,1.303,0.349,2.178,0.915,2.787c0.74,0.697,1.829,1.047,3.092,1.047
			c1.435,0,2.57-0.307,3.352-1.047c0.61-0.609,0.785-1.484,0.785-2.614V56.049h5.877v12.892
			C68.113,71.685,67.242,73.687,65.763,75.166z"/>
		<path fill="#312822" d="M70.861,77.213V56.049h5.881v16.767h7.791v4.397H70.861z"/>
		<path fill="#312822" d="M101.957,60.799H96.12v16.415h-5.881V60.799h-6.181v-4.749h19.031L101.957,60.799z"/>
		<path fill="#312822" d="M105.571,77.213V56.049h5.881v21.164H105.571z"/>
		<path fill="#312822" d="M126.78,77.348h-4.399l-9.145-21.298h6.27l4.138,10.623c0.479,1.313,0.914,2.702,1.217,3.706h0.044
			c0.307-1.004,0.831-2.354,1.437-3.746l4.442-10.584h5.88L126.78,77.348z"/>
		<path fill="#312822" d="M154.522,75.082c-1.959,1.611-4.527,2.566-7.664,2.566c-3.05,0-5.574-0.867-7.492-2.435
			c-2.351-1.917-3.699-4.877-3.699-8.54c0-3.482,1.307-6.441,3.615-8.4c1.916-1.614,4.527-2.572,7.663-2.572
			c3.223,0,5.925,1.004,7.839,2.748c2.135,1.955,3.308,4.788,3.308,8.224C158.091,70.202,156.786,73.12,154.522,75.082z
			 M146.858,60.185c-3.266,0-5.182,2.488-5.182,6.487c0,4.009,1.96,6.447,5.182,6.447c3.268,0,5.138-2.438,5.138-6.447
			C151.996,62.673,150.081,60.185,146.858,60.185z"/>
	</g>
	<g>
		<polygon fill="#312822" points="58.077,0 49.304,0 18.232,24.843 18.232,37.745 34.787,37.745 58.077,1.645 		"/>
		<polygon fill="#312822" points="74.852,0 67.921,0 55.979,24.321 55.979,37.745 70.768,37.745 74.852,2.142 		"/>
		<polygon fill="#312822" points="102.113,37.745 102.113,24.293 91.006,0 85.336,0 85.336,2.262 88.202,37.745 		"/>
		<polygon fill="#312822" points="139.86,37.745 139.86,24.833 109.444,0 100.015,0 100.015,1.632 123.946,37.745 		"/>
	</g>
	<g>
		<path fill="#312822" d="M21.59,100.138c-0.776,0-1.388-0.239-1.838-0.715c-0.449-0.476-0.674-1.153-0.674-2.03
			c0-0.584,0.085-1.142,0.256-1.678c0.171-0.534,0.409-1.009,0.714-1.424c0.306-0.416,0.692-0.756,1.159-1.019
			c0.467-0.264,0.987-0.396,1.558-0.396c0.633,0,1.115,0.141,1.445,0.423c0.33,0.282,0.495,0.638,0.495,1.066
			c0,0.322-0.072,0.605-0.216,0.847c-0.144,0.242-0.36,0.364-0.648,0.364c-0.239,0-0.419-0.063-0.538-0.188
			c-0.12-0.126-0.18-0.265-0.18-0.419c0-0.149,0.048-0.351,0.144-0.61c0.095-0.258,0.172-0.466,0.229-0.625
			c-0.049-0.124-0.158-0.216-0.326-0.274c-0.168-0.058-0.343-0.088-0.524-0.088c-0.603,0-1.122,0.37-1.558,1.109
			c-0.436,0.739-0.654,1.646-0.654,2.718c0,0.662,0.14,1.189,0.422,1.578c0.282,0.39,0.662,0.585,1.141,0.585
			c0.431,0,0.813-0.122,1.148-0.365c0.335-0.242,0.655-0.585,0.962-1.028l0.379,0.294c-0.306,0.508-0.721,0.947-1.245,1.319
			C22.715,99.952,22.165,100.138,21.59,100.138z"/>
		<path fill="#312822" d="M32.172,95.628c0,0.551-0.088,1.102-0.265,1.653c-0.177,0.551-0.434,1.034-0.771,1.45
			c-0.341,0.43-0.752,0.773-1.233,1.032c-0.481,0.26-1.037,0.389-1.671,0.389c-0.736,0-1.332-0.249-1.791-0.749
			c-0.458-0.499-0.687-1.172-0.687-2.017c0-0.62,0.097-1.2,0.292-1.736c0.195-0.538,0.456-1.008,0.784-1.415
			c0.333-0.407,0.743-0.735,1.233-0.984c0.489-0.25,1.02-0.375,1.591-0.375c0.788,0,1.405,0.253,1.85,0.759
			C31.95,94.141,32.172,94.806,32.172,95.628z M30.817,95.361c0-0.663-0.112-1.16-0.336-1.492c-0.224-0.332-0.545-0.498-0.966-0.498
			c-0.368,0-0.715,0.12-1.04,0.358c-0.326,0.238-0.606,0.625-0.841,1.162c-0.182,0.407-0.315,0.858-0.399,1.355
			c-0.084,0.498-0.126,0.956-0.126,1.376c0,0.669,0.11,1.174,0.329,1.517c0.219,0.344,0.55,0.514,0.993,0.514
			c0.394,0,0.744-0.13,1.05-0.392c0.305-0.261,0.553-0.593,0.744-0.994c0.191-0.392,0.337-0.842,0.438-1.349
			C30.766,96.413,30.817,95.893,30.817,95.361z"/>
		<path fill="#312822" d="M44.696,99.151l-0.1,0.448c-0.409,0.172-0.736,0.292-0.98,0.36c-0.245,0.067-0.453,0.101-0.627,0.101
			c-0.355,0-0.622-0.097-0.8-0.291c-0.177-0.194-0.267-0.433-0.267-0.718c0-0.102,0.009-0.216,0.026-0.339
			c0.018-0.123,0.047-0.27,0.087-0.437l0.657-2.613c0.049-0.2,0.088-0.382,0.117-0.546c0.029-0.163,0.043-0.294,0.043-0.392
			c0-0.313-0.064-0.561-0.192-0.743c-0.128-0.182-0.33-0.273-0.608-0.273c-0.295,0-0.585,0.074-0.869,0.221
			c-0.284,0.146-0.605,0.421-0.961,0.823l-1.167,5.19h-1.234l1.047-4.679c0.023-0.102,0.043-0.212,0.064-0.326
			c0.02-0.115,0.03-0.199,0.03-0.256c0-0.304-0.072-0.542-0.215-0.714c-0.143-0.173-0.353-0.26-0.63-0.26
			c-0.251,0-0.528,0.067-0.832,0.201c-0.304,0.132-0.655,0.431-1.056,0.893l-1.135,5.14h-1.241l0.996-4.539
			c0.036-0.164,0.071-0.338,0.104-0.526c0.033-0.186,0.05-0.346,0.05-0.476c0-0.271-0.042-0.449-0.127-0.535
			c-0.084-0.087-0.249-0.13-0.494-0.13c-0.098,0-0.224,0.02-0.378,0.058c-0.153,0.039-0.273,0.071-0.357,0.095l0.1-0.451
			c0.347-0.164,0.654-0.286,0.922-0.367c0.267-0.079,0.496-0.12,0.688-0.12c0.356,0,0.609,0.101,0.758,0.305
			c0.149,0.203,0.228,0.479,0.237,0.83h0.04c0.522-0.434,0.951-0.745,1.287-0.931c0.336-0.187,0.737-0.28,1.201-0.28
			c0.394,0,0.713,0.12,0.959,0.36c0.245,0.24,0.383,0.543,0.414,0.907h0.026c0.473-0.415,0.892-0.73,1.261-0.945
			c0.368-0.215,0.798-0.322,1.287-0.322c0.424,0,0.749,0.129,0.976,0.388c0.227,0.26,0.34,0.599,0.34,1.019
			c0,0.085-0.012,0.234-0.036,0.448c-0.024,0.215-0.063,0.427-0.116,0.638l-0.56,2.247c-0.04,0.15-0.078,0.322-0.113,0.516
			c-0.036,0.194-0.054,0.345-0.054,0.452c0,0.267,0.053,0.447,0.16,0.543c0.107,0.096,0.286,0.143,0.539,0.143
			c0.084,0,0.207-0.011,0.366-0.035C44.49,99.211,44.611,99.184,44.696,99.151z"/>
		<path fill="#312822" d="M50.29,98.962h-0.04c-0.204,0.172-0.399,0.332-0.584,0.476c-0.186,0.144-0.37,0.265-0.551,0.364
			c-0.213,0.112-0.405,0.192-0.578,0.241c-0.173,0.049-0.399,0.073-0.678,0.073c-0.426,0-0.756-0.129-0.99-0.388
			c-0.235-0.259-0.353-0.598-0.353-1.018c0-0.112,0.009-0.245,0.026-0.399c0.018-0.154,0.06-0.382,0.126-0.685l0.516-2.218
			c0.044-0.206,0.08-0.388,0.109-0.546c0.029-0.159,0.043-0.31,0.043-0.455c0-0.261-0.041-0.435-0.122-0.521
			c-0.082-0.086-0.249-0.129-0.501-0.129c-0.097,0-0.221,0.019-0.371,0.058c-0.15,0.039-0.267,0.071-0.351,0.095l0.1-0.451
			c0.346-0.164,0.65-0.289,0.913-0.373c0.264-0.085,0.475-0.127,0.635-0.127c0.355,0,0.615,0.087,0.781,0.262
			c0.166,0.175,0.249,0.423,0.249,0.745c0,0.085-0.009,0.198-0.026,0.343c-0.018,0.145-0.044,0.29-0.08,0.434l-0.587,2.589
			c-0.044,0.196-0.08,0.379-0.109,0.549c-0.029,0.171-0.043,0.301-0.043,0.389c0,0.313,0.064,0.56,0.193,0.741
			c0.128,0.182,0.332,0.273,0.61,0.273c0.283,0,0.574-0.078,0.873-0.235c0.299-0.156,0.599-0.392,0.899-0.711l1.157-5.267
			l1.159-0.085l0.08,0.105l-0.988,4.506c-0.044,0.192-0.084,0.384-0.12,0.577c-0.035,0.194-0.053,0.331-0.053,0.41
			c0,0.265,0.055,0.446,0.163,0.542c0.108,0.096,0.289,0.143,0.541,0.143c0.084,0,0.203-0.014,0.358-0.042
			c0.154-0.028,0.273-0.058,0.358-0.091l-0.1,0.448c-0.367,0.159-0.675,0.278-0.92,0.357c-0.246,0.079-0.473,0.119-0.681,0.119
			c-0.359,0-0.626-0.11-0.8-0.329C50.377,99.512,50.29,99.255,50.29,98.962z"/>
		<path fill="#312822" d="M61.556,99.13l-0.1,0.447c-0.4,0.169-0.712,0.291-0.934,0.368c-0.222,0.077-0.446,0.116-0.673,0.116
			c-0.356,0-0.622-0.097-0.8-0.291c-0.178-0.194-0.267-0.433-0.267-0.718c0-0.102,0.009-0.216,0.026-0.339
			c0.018-0.123,0.046-0.27,0.087-0.437l0.656-2.613c0.049-0.2,0.088-0.382,0.117-0.546c0.029-0.163,0.044-0.294,0.044-0.392
			c0-0.313-0.071-0.561-0.212-0.743c-0.141-0.182-0.349-0.273-0.627-0.273c-0.268,0-0.568,0.094-0.902,0.281
			c-0.334,0.186-0.648,0.457-0.943,0.813l-1.135,5.14h-1.242l0.996-4.539c0.023-0.112,0.055-0.274,0.097-0.487
			c0.042-0.213,0.063-0.385,0.063-0.514c0-0.262-0.042-0.437-0.127-0.526c-0.084-0.089-0.253-0.133-0.507-0.133
			c-0.098,0-0.223,0.018-0.374,0.052c-0.152,0.035-0.269,0.065-0.354,0.088l0.1-0.447c0.347-0.164,0.654-0.285,0.922-0.364
			c0.267-0.08,0.496-0.12,0.687-0.12c0.352,0,0.604,0.101,0.755,0.302c0.152,0.201,0.232,0.478,0.24,0.833h0.041
			c0.485-0.411,0.904-0.715,1.257-0.913c0.354-0.198,0.755-0.297,1.205-0.297c0.424,0,0.755,0.129,0.993,0.388
			c0.239,0.26,0.358,0.599,0.358,1.019c0,0.085-0.012,0.234-0.036,0.448c-0.025,0.215-0.063,0.427-0.117,0.638l-0.559,2.247
			c-0.04,0.15-0.079,0.322-0.117,0.516c-0.037,0.194-0.056,0.345-0.056,0.452c0,0.267,0.055,0.447,0.166,0.543
			c0.11,0.096,0.292,0.143,0.545,0.143c0.084,0,0.205-0.015,0.362-0.045C61.351,99.194,61.472,99.163,61.556,99.13z"/>
		<path fill="#312822" d="M66.113,99.178l-0.1,0.448c-0.408,0.173-0.733,0.293-0.977,0.36c-0.244,0.068-0.452,0.101-0.625,0.101
			c-0.354,0-0.62-0.097-0.797-0.291c-0.177-0.194-0.267-0.433-0.267-0.717c0-0.108,0.009-0.22,0.028-0.336
			c0.018-0.117,0.046-0.264,0.086-0.442l0.702-2.977c0.036-0.163,0.07-0.338,0.103-0.525c0.034-0.186,0.05-0.346,0.05-0.476
			c0-0.262-0.041-0.436-0.123-0.522c-0.082-0.086-0.248-0.129-0.5-0.129c-0.098,0-0.227,0.015-0.388,0.048
			c-0.162,0.033-0.284,0.061-0.368,0.084l0.099-0.447c0.345-0.164,0.655-0.285,0.93-0.364c0.274-0.08,0.491-0.119,0.651-0.119
			c0.363,0,0.626,0.09,0.79,0.273c0.164,0.182,0.246,0.426,0.246,0.735c0,0.084-0.009,0.198-0.027,0.343
			c-0.018,0.145-0.044,0.29-0.079,0.435l-0.706,2.977c-0.044,0.182-0.083,0.36-0.116,0.535c-0.033,0.175-0.05,0.319-0.05,0.431
			c0,0.267,0.056,0.448,0.169,0.546c0.112,0.098,0.295,0.148,0.546,0.148c0.084,0,0.203-0.012,0.361-0.035
			C65.908,99.239,66.029,99.211,66.113,99.178z M66.585,90.231c0,0.266-0.083,0.498-0.246,0.696
			c-0.164,0.198-0.368,0.297-0.611,0.297c-0.226,0-0.421-0.095-0.585-0.283c-0.164-0.189-0.246-0.405-0.246-0.648
			c0-0.257,0.082-0.48,0.246-0.672c0.164-0.191,0.359-0.286,0.585-0.286c0.252,0,0.458,0.09,0.617,0.27
			C66.505,89.784,66.585,89.993,66.585,90.231z"/>
		<path fill="#312822" d="M69.958,100.138c-0.775,0-1.388-0.239-1.837-0.715c-0.45-0.476-0.675-1.153-0.675-2.03
			c0-0.584,0.086-1.142,0.257-1.678c0.17-0.534,0.408-1.009,0.714-1.424c0.306-0.416,0.692-0.756,1.16-1.019
			c0.468-0.264,0.987-0.396,1.558-0.396c0.633,0,1.115,0.141,1.445,0.423c0.329,0.282,0.495,0.638,0.495,1.066
			c0,0.322-0.073,0.605-0.216,0.847c-0.144,0.242-0.36,0.364-0.648,0.364c-0.239,0-0.419-0.063-0.539-0.188
			c-0.119-0.126-0.179-0.265-0.179-0.419c0-0.149,0.048-0.351,0.144-0.61c0.096-0.258,0.172-0.466,0.228-0.625
			c-0.049-0.124-0.157-0.216-0.325-0.274c-0.169-0.058-0.344-0.088-0.525-0.088c-0.602,0-1.122,0.37-1.558,1.109
			c-0.436,0.739-0.654,1.646-0.654,2.718c0,0.662,0.141,1.189,0.422,1.578c0.281,0.39,0.662,0.585,1.141,0.585
			c0.43,0,0.813-0.122,1.148-0.365c0.335-0.242,0.655-0.585,0.961-1.028l0.38,0.294c-0.306,0.508-0.721,0.947-1.246,1.319
			C71.085,99.952,70.534,100.138,69.958,100.138z"/>
		<path fill="#312822" d="M78.297,99.017H78.25c-0.098,0.084-0.213,0.189-0.349,0.318c-0.135,0.128-0.293,0.251-0.474,0.368
			c-0.172,0.117-0.361,0.218-0.564,0.304c-0.203,0.086-0.425,0.13-0.663,0.13c-0.642,0-1.145-0.243-1.51-0.728
			c-0.365-0.486-0.547-1.149-0.547-1.99c0-0.578,0.101-1.141,0.305-1.688c0.204-0.545,0.485-1.037,0.843-1.471
			c0.342-0.415,0.746-0.75,1.215-1.005c0.47-0.255,0.952-0.381,1.448-0.381c0.314,0,0.613,0.044,0.899,0.132
			c0.286,0.089,0.51,0.189,0.674,0.302l1.22-0.329l0.08,0.105l-1.012,4.518c-0.036,0.144-0.073,0.321-0.11,0.529
			c-0.037,0.208-0.057,0.361-0.057,0.458c0,0.267,0.053,0.446,0.16,0.54c0.106,0.094,0.286,0.14,0.539,0.14
			c0.084,0,0.204-0.014,0.36-0.042c0.155-0.028,0.275-0.058,0.36-0.091l-0.1,0.448c-0.4,0.169-0.697,0.29-0.892,0.364
			c-0.195,0.075-0.433,0.112-0.712,0.112c-0.319,0-0.572-0.098-0.759-0.294C78.416,99.57,78.314,99.32,78.297,99.017z
			 M79.254,94.591c0-0.154-0.015-0.301-0.046-0.442c-0.031-0.14-0.096-0.271-0.193-0.392c-0.089-0.117-0.211-0.209-0.366-0.28
			c-0.155-0.071-0.35-0.106-0.584-0.106c-0.324,0-0.639,0.112-0.945,0.337c-0.306,0.224-0.581,0.524-0.824,0.903
			c-0.23,0.355-0.419,0.784-0.565,1.289c-0.146,0.505-0.219,1.016-0.219,1.533c0,0.285,0.015,0.538,0.046,0.757
			c0.031,0.219,0.091,0.42,0.18,0.603c0.084,0.177,0.205,0.315,0.365,0.413c0.159,0.098,0.36,0.147,0.603,0.147
			c0.248,0,0.507-0.073,0.779-0.22c0.272-0.146,0.578-0.405,0.919-0.774L79.254,94.591z"/>
		<path fill="#312822" d="M84.932,100.138c-0.775,0-1.388-0.239-1.837-0.715c-0.449-0.476-0.674-1.153-0.674-2.03
			c0-0.584,0.085-1.142,0.255-1.678c0.171-0.534,0.409-1.009,0.714-1.424c0.307-0.416,0.693-0.756,1.161-1.019
			c0.467-0.264,0.986-0.396,1.557-0.396c0.634,0,1.115,0.141,1.446,0.423c0.329,0.282,0.495,0.638,0.495,1.066
			c0,0.322-0.072,0.605-0.216,0.847c-0.144,0.242-0.36,0.364-0.648,0.364c-0.239,0-0.419-0.063-0.538-0.188
			c-0.12-0.126-0.179-0.265-0.179-0.419c0-0.149,0.047-0.351,0.143-0.61c0.096-0.258,0.172-0.466,0.229-0.625
			c-0.049-0.124-0.157-0.216-0.326-0.274c-0.169-0.058-0.344-0.088-0.525-0.088c-0.603,0-1.122,0.37-1.558,1.109
			c-0.436,0.739-0.654,1.646-0.654,2.718c0,0.662,0.141,1.189,0.423,1.578c0.281,0.39,0.662,0.585,1.141,0.585
			c0.43,0,0.813-0.122,1.148-0.365c0.335-0.242,0.655-0.585,0.962-1.028l0.378,0.294c-0.305,0.508-0.72,0.947-1.245,1.319
			C86.058,99.952,85.508,100.138,84.932,100.138z"/>
		<path fill="#312822" d="M92.312,99.178l-0.1,0.448c-0.408,0.173-0.733,0.293-0.976,0.36c-0.244,0.068-0.452,0.101-0.625,0.101
			c-0.355,0-0.62-0.097-0.798-0.291c-0.177-0.194-0.265-0.433-0.265-0.717c0-0.108,0.009-0.22,0.026-0.336
			c0.018-0.117,0.047-0.264,0.086-0.442l0.702-2.977c0.036-0.163,0.07-0.338,0.103-0.525c0.033-0.186,0.049-0.346,0.049-0.476
			c0-0.262-0.04-0.436-0.122-0.522c-0.082-0.086-0.248-0.129-0.501-0.129c-0.097,0-0.226,0.015-0.388,0.048
			c-0.161,0.033-0.284,0.061-0.368,0.084l0.099-0.447c0.346-0.164,0.655-0.285,0.93-0.364c0.275-0.08,0.491-0.119,0.651-0.119
			c0.364,0,0.627,0.09,0.79,0.273c0.164,0.182,0.246,0.426,0.246,0.735c0,0.084-0.009,0.198-0.027,0.343
			c-0.018,0.145-0.045,0.29-0.08,0.435l-0.706,2.977c-0.044,0.182-0.083,0.36-0.116,0.535c-0.033,0.175-0.049,0.319-0.049,0.431
			c0,0.267,0.056,0.448,0.169,0.546c0.112,0.098,0.294,0.148,0.546,0.148c0.084,0,0.204-0.012,0.36-0.035
			C92.108,99.239,92.229,99.211,92.312,99.178z M92.784,90.231c0,0.266-0.082,0.498-0.246,0.696
			c-0.164,0.198-0.368,0.297-0.611,0.297c-0.226,0-0.421-0.095-0.585-0.283c-0.164-0.189-0.246-0.405-0.246-0.648
			c0-0.257,0.082-0.48,0.246-0.672c0.164-0.191,0.359-0.286,0.585-0.286c0.252,0,0.458,0.09,0.618,0.27
			C92.705,89.784,92.784,89.993,92.784,90.231z"/>
		<path fill="#312822" d="M100.065,95.628c0,0.551-0.089,1.102-0.266,1.653c-0.177,0.551-0.433,1.034-0.771,1.45
			c-0.341,0.43-0.752,0.773-1.233,1.032c-0.48,0.26-1.038,0.389-1.671,0.389c-0.735,0-1.332-0.249-1.791-0.749
			c-0.458-0.499-0.687-1.172-0.687-2.017c0-0.62,0.097-1.2,0.292-1.736c0.195-0.538,0.456-1.008,0.784-1.415
			c0.332-0.407,0.743-0.735,1.233-0.984c0.489-0.25,1.019-0.375,1.591-0.375c0.789,0,1.406,0.253,1.851,0.759
			C99.842,94.141,100.065,94.806,100.065,95.628z M98.709,95.361c0-0.663-0.112-1.16-0.335-1.492
			c-0.224-0.332-0.546-0.498-0.967-0.498c-0.368,0-0.715,0.12-1.04,0.358c-0.326,0.238-0.606,0.625-0.841,1.162
			c-0.182,0.407-0.315,0.858-0.398,1.355c-0.085,0.498-0.127,0.956-0.127,1.376c0,0.669,0.11,1.174,0.329,1.517
			c0.22,0.344,0.55,0.514,0.994,0.514c0.394,0,0.744-0.13,1.049-0.392c0.306-0.261,0.554-0.593,0.745-0.994
			c0.19-0.392,0.336-0.842,0.438-1.349C98.658,96.413,98.709,95.893,98.709,95.361z M99.234,89.685c0,0.186-0.042,0.337-0.126,0.451
			c-0.085,0.115-0.213,0.241-0.386,0.381c-0.208,0.169-0.478,0.376-0.807,0.624c-0.33,0.247-0.776,0.592-1.339,1.034l-0.24-0.224
			c0.439-0.616,0.744-1.052,0.914-1.309c0.17-0.256,0.352-0.538,0.548-0.846c0.155-0.251,0.305-0.418,0.449-0.497
			c0.144-0.079,0.3-0.119,0.468-0.119c0.146,0,0.269,0.052,0.368,0.154C99.185,89.437,99.234,89.554,99.234,89.685z"/>
		<path fill="#312822" d="M108.648,99.13l-0.1,0.447c-0.4,0.169-0.711,0.291-0.933,0.368c-0.223,0.077-0.447,0.116-0.673,0.116
			c-0.356,0-0.623-0.097-0.801-0.291c-0.177-0.194-0.267-0.433-0.267-0.718c0-0.102,0.009-0.216,0.027-0.339
			c0.018-0.123,0.047-0.27,0.087-0.437l0.656-2.613c0.05-0.2,0.088-0.382,0.117-0.546c0.029-0.163,0.043-0.294,0.043-0.392
			c0-0.313-0.071-0.561-0.21-0.743c-0.141-0.182-0.35-0.273-0.627-0.273c-0.268,0-0.569,0.094-0.903,0.281
			c-0.334,0.186-0.648,0.457-0.942,0.813l-1.136,5.14h-1.241l0.996-4.539c0.022-0.112,0.053-0.274,0.096-0.487
			c0.042-0.213,0.063-0.385,0.063-0.514c0-0.262-0.042-0.437-0.127-0.526c-0.084-0.089-0.254-0.133-0.507-0.133
			c-0.098,0-0.223,0.018-0.375,0.052c-0.151,0.035-0.269,0.065-0.354,0.088l0.1-0.447c0.347-0.164,0.654-0.285,0.922-0.364
			c0.268-0.08,0.496-0.12,0.689-0.12c0.351,0,0.603,0.101,0.755,0.302c0.151,0.201,0.231,0.478,0.24,0.833h0.04
			c0.485-0.411,0.905-0.715,1.258-0.913c0.353-0.198,0.755-0.297,1.205-0.297c0.424,0,0.755,0.129,0.993,0.388
			c0.238,0.26,0.358,0.599,0.358,1.019c0,0.085-0.012,0.234-0.037,0.448c-0.024,0.215-0.063,0.427-0.116,0.638l-0.559,2.247
			c-0.04,0.15-0.078,0.322-0.116,0.516c-0.039,0.194-0.057,0.345-0.057,0.452c0,0.267,0.055,0.447,0.166,0.543
			c0.111,0.096,0.293,0.143,0.545,0.143c0.085,0,0.205-0.015,0.362-0.045C108.442,99.194,108.564,99.163,108.648,99.13z"/>
		<path fill="#312822" d="M124.1,94.171c0,0.733-0.1,1.459-0.3,2.178c-0.199,0.718-0.472,1.351-0.817,1.897
			c-0.385,0.607-0.822,1.076-1.309,1.408c-0.487,0.332-1.016,0.497-1.588,0.497c-0.416,0-0.801-0.121-1.152-0.364
			c-0.353-0.243-0.588-0.577-0.708-1.001c-0.16,0.163-0.307,0.315-0.442,0.455c-0.135,0.14-0.311,0.285-0.528,0.434
			c-0.218,0.15-0.415,0.264-0.595,0.344c-0.18,0.078-0.409,0.119-0.687,0.119c-0.337,0-0.615-0.055-0.834-0.165
			c-0.219-0.11-0.396-0.253-0.529-0.431c-0.124-0.169-0.212-0.358-0.265-0.571c-0.053-0.213-0.08-0.435-0.08-0.669
			c0-0.089,0.01-0.201,0.03-0.336c0.02-0.136,0.041-0.252,0.063-0.35l0.565-2.213c0.052-0.21,0.092-0.402,0.116-0.574
			c0.025-0.173,0.036-0.316,0.036-0.427c0-0.262-0.041-0.436-0.123-0.522c-0.083-0.086-0.249-0.13-0.501-0.13
			c-0.098,0-0.222,0.02-0.372,0.058c-0.151,0.04-0.268,0.072-0.353,0.096l0.1-0.451c0.344-0.165,0.648-0.29,0.91-0.373
			c0.263-0.085,0.474-0.128,0.633-0.128c0.353,0,0.613,0.088,0.778,0.263c0.166,0.175,0.249,0.423,0.249,0.746
			c0,0.084-0.009,0.198-0.026,0.343c-0.018,0.145-0.045,0.29-0.079,0.435l-0.614,2.585c-0.04,0.172-0.073,0.349-0.099,0.532
			c-0.027,0.182-0.04,0.317-0.04,0.407c0,0.349,0.067,0.615,0.199,0.794c0.133,0.18,0.357,0.27,0.672,0.27
			c0.279,0,0.572-0.08,0.877-0.242c0.306-0.161,0.585-0.396,0.838-0.704l1.177-5.316l1.157-0.084l0.079,0.105l-0.938,4.266
			c-0.03,0.14-0.063,0.312-0.096,0.514c-0.034,0.204-0.05,0.33-0.05,0.382c0,0.257,0.039,0.459,0.116,0.609
			c0.077,0.15,0.176,0.259,0.296,0.329c0.115,0.069,0.235,0.113,0.359,0.129c0.124,0.017,0.243,0.025,0.359,0.025
			c0.301,0,0.61-0.101,0.927-0.302c0.317-0.201,0.593-0.462,0.827-0.784c0.262-0.359,0.467-0.757,0.618-1.194
			c0.15-0.436,0.226-0.907,0.226-1.411c0-0.28-0.036-0.496-0.11-0.648c-0.073-0.152-0.154-0.283-0.243-0.396
			c-0.088-0.117-0.169-0.239-0.242-0.368c-0.073-0.128-0.11-0.31-0.11-0.542c0-0.267,0.084-0.469,0.252-0.61
			c0.169-0.14,0.345-0.209,0.532-0.209c0.262,0,0.467,0.11,0.615,0.332C124.026,93.43,124.1,93.75,124.1,94.171z"/>
		<path fill="#312822" d="M131.174,94.333c0,0.495-0.146,0.92-0.442,1.275c-0.294,0.356-0.723,0.639-1.286,0.848
			c-0.411,0.16-0.828,0.288-1.249,0.386c-0.42,0.098-0.886,0.18-1.395,0.246c0,0.737,0.129,1.3,0.389,1.689
			c0.259,0.39,0.639,0.585,1.139,0.585c0.443,0,0.834-0.117,1.173-0.35c0.339-0.232,0.673-0.581,1-1.042l0.379,0.294
			c-0.355,0.568-0.798,1.023-1.329,1.364c-0.532,0.34-1.083,0.511-1.655,0.511c-0.784,0-1.383-0.231-1.797-0.694
			c-0.414-0.462-0.622-1.118-0.622-1.968c0-0.588,0.088-1.149,0.263-1.684c0.175-0.534,0.431-1.023,0.768-1.466
			c0.327-0.435,0.729-0.784,1.205-1.051c0.476-0.267,1.002-0.399,1.578-0.399c0.638,0,1.111,0.137,1.418,0.409
			C131.021,93.559,131.174,93.908,131.174,94.333z M129.952,94.161c0-0.182-0.025-0.325-0.073-0.43
			c-0.049-0.105-0.111-0.183-0.186-0.234c-0.08-0.056-0.164-0.091-0.253-0.105c-0.088-0.014-0.18-0.022-0.272-0.022
			c-0.531,0-1.022,0.307-1.472,0.922c-0.449,0.614-0.735,1.38-0.854,2.297c0.31-0.047,0.66-0.112,1.05-0.199
			c0.39-0.086,0.713-0.198,0.969-0.338c0.368-0.201,0.642-0.457,0.821-0.771C129.862,94.967,129.952,94.594,129.952,94.161z"/>
		<path fill="#312822" d="M139.014,95.551c0,0.62-0.106,1.215-0.319,1.782c-0.212,0.567-0.494,1.057-0.844,1.466
			c-0.358,0.421-0.764,0.751-1.215,0.992c-0.452,0.24-0.931,0.36-1.436,0.36c-0.381,0-0.716-0.034-1.006-0.101
			c-0.29-0.067-0.537-0.16-0.741-0.276c-0.208-0.121-0.381-0.258-0.519-0.409c-0.137-0.152-0.261-0.322-0.372-0.508l1.713-7.925
			c0.022-0.108,0.041-0.199,0.057-0.276c0.015-0.077,0.023-0.155,0.023-0.235c0-0.169-0.026-0.297-0.08-0.389
			c-0.053-0.09-0.128-0.16-0.226-0.206c-0.092-0.042-0.209-0.071-0.351-0.085c-0.142-0.013-0.285-0.03-0.431-0.048l0.093-0.427
			l2.453-0.153l0.066,0.105l-1.004,4.646h0.026c0.399-0.373,0.751-0.631,1.054-0.773c0.304-0.142,0.6-0.213,0.889-0.213
			c0.674,0,1.204,0.241,1.59,0.724C138.821,94.083,139.014,94.733,139.014,95.551z M137.645,95.585c0-0.247-0.022-0.496-0.064-0.746
			c-0.042-0.25-0.112-0.458-0.209-0.627c-0.102-0.177-0.242-0.317-0.42-0.42c-0.177-0.104-0.398-0.154-0.66-0.154
			c-0.155,0-0.302,0.028-0.439,0.084c-0.138,0.056-0.28,0.131-0.426,0.225c-0.128,0.084-0.254,0.185-0.376,0.304
			s-0.234,0.226-0.336,0.318l-0.885,4.154c0.013,0.094,0.054,0.196,0.12,0.307c0.067,0.112,0.151,0.21,0.253,0.295
			c0.124,0.107,0.263,0.188,0.419,0.245c0.155,0.056,0.327,0.084,0.513,0.084c0.35,0,0.68-0.108,0.988-0.325
			c0.308-0.217,0.573-0.51,0.795-0.879c0.243-0.402,0.426-0.85,0.545-1.345C137.585,96.61,137.645,96.104,137.645,95.585z"/>
	</g>
</g>
</svg>
